<?xml version="1.0" standalone="no"?><!DOCTYPE svg PUBLIC "-//W3C//DTD SVG 1.1//EN" "http://www.w3.org/Graphics/SVG/1.1/DTD/svg11.dtd"><svg t="1701847098382" class="icon" viewBox="0 0 1024 1024" version="1.1" xmlns="http://www.w3.org/2000/svg" p-id="4417" width="20" height="20" xmlns:xlink="http://www.w3.org/1999/xlink"><path d="M417.792 151.6544a140.8 140.8 0 0 1 183.296 0l256 219.4432c31.232 26.7264 49.152 65.792 49.152 106.9056v285.696a140.8 140.8 0 0 1-140.8 140.8h-512a140.8 140.8 0 0 1-140.8-140.8v-285.696c0-41.1136 17.92-80.1792 49.152-106.9056z m133.3248 58.3168a64 64 0 0 0-83.3024 0l-256 219.4432a64 64 0 0 0-22.3744 48.5888v285.696c0 35.328 28.672 64 64 64H368.64v-192c0-49.5104 40.1408-89.6 89.6-89.6h102.4c49.4592 0 89.6 40.0896 89.6 89.6v192h115.2c35.328 0 64-28.672 64-64v-285.696c0-18.688-8.192-36.4544-22.3232-48.64z m9.5232 412.928h-102.4a12.8 12.8 0 0 0-12.8 12.8v192h128v-192a12.8 12.8 0 0 0-12.8-12.8z" fill="#4678FF" p-id="4418"></path></svg>