<svg 
 xmlns="http://www.w3.org/2000/svg"
 xmlns:xlink="http://www.w3.org/1999/xlink"
 width="19px" height="19px">
<path fill-rule="evenodd"  fill="rgb(51, 51, 51)"
 d="M9.500,0.000 C14.747,0.000 19.000,4.253 19.000,9.500 C19.000,14.747 14.747,19.000 9.500,19.000 C6.975,19.003 4.553,17.998 2.772,16.207 C2.494,15.929 2.495,15.477 2.774,15.200 C3.053,14.922 3.504,14.922 3.781,15.201 C5.295,16.724 7.353,17.578 9.500,17.575 C13.960,17.575 17.575,13.960 17.575,9.500 C17.575,5.040 13.960,1.425 9.500,1.425 C5.566,1.425 2.290,4.238 1.571,7.963 L2.622,6.997 C2.912,6.731 3.363,6.750 3.629,7.040 C3.895,7.330 3.876,7.780 3.586,8.047 L1.432,10.025 C1.270,10.173 1.048,10.239 0.832,10.202 C0.625,10.237 0.413,10.179 0.253,10.044 C0.093,9.909 0.000,9.710 0.000,9.500 C0.000,4.254 4.253,0.000 9.500,0.000 L9.500,0.000 ZM6.942,8.613 C7.234,8.613 7.480,8.835 7.509,9.125 L7.512,9.183 L7.512,11.897 C7.664,12.130 8.057,12.325 8.684,12.466 L8.882,12.507 C8.950,12.521 9.020,12.534 9.093,12.545 L9.318,12.580 C9.435,12.597 9.557,12.612 9.684,12.626 L9.946,12.652 L10.221,12.674 L10.511,12.693 L10.661,12.701 L10.972,12.714 L11.296,12.723 L11.635,12.728 L11.988,12.729 L12.169,12.727 L12.543,12.723 L12.735,12.718 L13.129,12.706 L13.538,12.690 L13.747,12.680 C13.951,12.668 14.147,12.767 14.258,12.939 C14.370,13.111 14.381,13.329 14.286,13.511 C14.192,13.693 14.008,13.811 13.803,13.819 L13.353,13.839 L12.918,13.854 L12.497,13.865 L12.292,13.868 L11.892,13.872 L11.506,13.870 C11.443,13.869 11.380,13.868 11.318,13.867 L10.953,13.858 L10.602,13.844 C10.490,13.839 10.378,13.832 10.265,13.825 L9.942,13.800 L9.786,13.786 L9.484,13.753 C8.333,13.616 7.499,13.355 6.972,12.953 C6.647,13.343 6.311,13.628 5.959,13.808 C5.678,13.951 5.335,13.840 5.192,13.559 C5.049,13.278 5.160,12.935 5.441,12.792 C5.727,12.647 6.042,12.338 6.372,11.860 L6.372,9.753 L6.011,9.753 C5.718,9.753 5.473,9.532 5.444,9.242 L5.441,9.183 C5.441,8.891 5.662,8.647 5.952,8.617 L6.011,8.613 L6.942,8.613 ZM13.716,5.605 C13.768,5.915 13.559,6.209 13.249,6.262 C12.702,6.355 12.017,6.431 11.257,6.486 L10.792,6.517 L10.313,6.542 C10.070,6.554 9.822,6.563 9.572,6.570 L9.372,6.575 L9.369,6.946 L9.364,7.346 L12.843,7.346 C12.926,7.346 13.004,7.365 13.076,7.396 L13.020,7.375 C13.138,7.414 13.240,7.490 13.311,7.592 C13.329,7.617 13.344,7.643 13.358,7.670 L13.366,7.688 C13.374,7.707 13.381,7.725 13.386,7.744 C13.423,7.857 13.423,7.978 13.386,8.090 L13.385,8.094 C13.112,8.930 12.778,9.657 12.383,10.272 C12.815,10.643 13.240,11.047 13.579,11.423 C13.722,11.574 13.772,11.790 13.709,11.988 C13.647,12.186 13.482,12.334 13.279,12.375 C13.075,12.416 12.866,12.343 12.731,12.185 C12.578,12.014 12.403,11.837 12.217,11.658 L11.989,11.445 L11.754,11.235 C11.731,11.216 11.708,11.196 11.685,11.176 C11.291,11.604 10.824,11.958 10.307,12.225 C10.125,12.320 9.906,12.311 9.734,12.200 C9.561,12.088 9.461,11.893 9.473,11.688 C9.484,11.483 9.605,11.300 9.789,11.209 C10.163,11.016 10.502,10.763 10.793,10.460 L10.825,10.483 C10.535,10.268 10.280,10.100 10.100,10.008 C9.819,9.865 9.708,9.522 9.851,9.241 C9.994,8.961 10.337,8.849 10.618,8.992 C10.846,9.108 11.150,9.307 11.487,9.556 C11.683,9.237 11.863,8.882 12.026,8.487 L9.337,8.487 L9.335,8.562 L9.321,8.917 L9.306,9.252 L9.280,9.719 L9.260,10.006 L9.226,10.400 L9.201,10.639 L9.174,10.859 L9.145,11.059 L9.114,11.241 L9.081,11.404 C9.070,11.452 9.058,11.500 9.046,11.548 C8.964,11.852 8.652,12.032 8.348,11.951 C8.044,11.869 7.863,11.556 7.945,11.252 C7.954,11.216 7.964,11.176 7.973,11.134 L8.001,10.995 L8.014,10.919 L8.039,10.752 L8.063,10.567 L8.096,10.253 L8.115,10.020 L8.134,9.769 L8.159,9.356 L8.174,9.058 L8.193,8.577 L8.209,8.054 L8.221,7.490 L8.230,6.885 L8.236,6.016 L8.237,5.992 L8.238,5.966 L8.238,5.960 L8.236,6.015 C8.237,5.865 8.296,5.722 8.401,5.616 C8.465,5.551 8.543,5.503 8.629,5.474 L8.638,5.472 C8.690,5.456 8.744,5.448 8.798,5.447 C8.963,5.445 9.126,5.442 9.289,5.437 L9.774,5.423 L10.249,5.404 C10.405,5.397 10.560,5.388 10.712,5.379 L11.159,5.350 C11.379,5.334 11.591,5.317 11.795,5.298 L12.190,5.257 C12.481,5.226 12.770,5.186 13.058,5.138 C13.369,5.085 13.663,5.294 13.716,5.605 L13.716,5.605 ZM6.289,5.731 L6.342,5.764 L7.331,6.436 C7.582,6.606 7.657,6.943 7.500,7.203 C7.344,7.463 7.011,7.554 6.743,7.411 L6.690,7.379 L5.701,6.707 C5.449,6.537 5.375,6.200 5.531,5.940 C5.688,5.680 6.021,5.588 6.289,5.731 L6.289,5.731 Z"/>
</svg>
