<svg 
 xmlns="http://www.w3.org/2000/svg"
 xmlns:xlink="http://www.w3.org/1999/xlink"
 width="16px" height="18px">
<path fill-rule="evenodd"  fill="rgb(51, 51, 51)"
 d="M14.933,16.582 C14.266,17.027 13.415,17.122 12.659,16.837 L8.255,15.175 C8.091,15.113 7.911,15.113 7.747,15.175 L3.343,16.837 C3.053,16.947 2.752,17.000 2.452,17.000 C1.965,17.000 1.480,16.859 1.067,16.584 C0.399,16.139 -0.000,15.403 -0.000,14.616 L-0.000,2.384 C-0.000,1.070 1.100,0.000 2.454,0.000 L13.546,0.000 C14.898,0.000 16.000,1.068 16.000,2.384 L16.000,14.616 C16.000,15.403 15.601,16.139 14.933,16.582 ZM14.246,2.384 C14.246,2.007 13.931,1.701 13.544,1.701 L2.452,1.701 C2.065,1.701 1.750,2.007 1.750,2.384 L1.750,14.616 C1.750,14.845 1.861,15.052 2.055,15.179 C2.251,15.308 2.488,15.335 2.707,15.253 L7.110,13.592 C7.682,13.375 8.314,13.375 8.886,13.592 L13.289,15.253 C13.509,15.337 13.747,15.310 13.941,15.181 C14.135,15.052 14.246,14.846 14.246,14.618 L14.246,2.384 ZM10.780,8.224 L8.874,8.224 L8.874,10.074 C8.874,10.543 8.482,10.925 7.999,10.925 C7.516,10.925 7.124,10.545 7.124,10.076 L7.124,8.224 L5.220,8.224 C4.736,8.224 4.345,7.844 4.345,7.375 C4.345,6.905 4.736,6.525 5.220,6.525 L7.124,6.525 L7.124,4.674 C7.124,4.204 7.516,3.824 7.999,3.824 C8.482,3.824 8.874,4.204 8.874,4.674 L8.874,6.525 L10.780,6.525 C11.264,6.525 11.655,6.905 11.655,7.375 C11.655,7.844 11.264,8.224 10.780,8.224 Z"/>
</svg>
