<svg 
 xmlns="http://www.w3.org/2000/svg"
 xmlns:xlink="http://www.w3.org/1999/xlink"
 width="18px" height="16px">
<path fill-rule="evenodd"  fill="rgb(51, 51, 51)"
 d="M17.242,7.529 L13.263,7.529 C12.884,7.529 12.505,7.247 12.505,6.776 C12.505,6.400 12.789,6.024 13.263,6.024 L17.242,6.024 C17.621,6.024 18.000,6.400 18.000,6.776 C18.000,7.153 17.716,7.529 17.242,7.529 ZM17.242,4.612 L14.116,4.612 C13.642,4.612 13.263,4.235 13.358,3.859 C13.358,3.482 13.642,3.106 14.116,3.106 L17.242,3.106 C17.621,3.106 18.000,3.388 18.000,3.859 C18.000,4.235 17.716,4.612 17.242,4.612 ZM9.474,8.847 C12.032,9.882 13.832,12.329 13.832,15.153 C13.832,15.624 13.453,16.000 12.979,16.000 C12.505,16.000 12.126,15.624 12.126,15.153 C12.126,12.329 9.853,9.976 6.916,9.976 C4.074,9.976 1.705,12.329 1.705,15.153 C1.705,15.624 1.326,16.000 0.853,16.000 C0.379,16.000 -0.000,15.624 -0.000,15.153 C-0.000,12.235 1.800,9.788 4.358,8.847 C2.937,8.000 1.989,6.494 1.989,4.800 C1.989,2.165 4.358,-0.000 7.011,-0.000 C9.663,-0.000 11.842,2.165 11.842,4.800 C11.842,6.494 10.895,8.000 9.474,8.847 ZM6.916,1.600 C5.116,1.600 3.695,3.012 3.695,4.800 C3.695,6.588 5.116,8.000 6.916,8.000 C8.716,8.000 10.137,6.588 10.137,4.800 C10.137,3.012 8.716,1.600 6.916,1.600 ZM13.358,9.788 C13.358,9.412 13.642,9.035 14.116,9.035 L17.242,9.035 C17.621,9.035 18.000,9.412 18.000,9.788 C18.000,10.165 17.716,10.541 17.242,10.541 L14.116,10.541 C13.737,10.541 13.358,10.259 13.358,9.788 Z"/>
</svg>
