<svg 
 xmlns="http://www.w3.org/2000/svg"
 xmlns:xlink="http://www.w3.org/1999/xlink"
 width="15px" height="18px">
<path fill-rule="evenodd"  fill="rgb(51, 51, 51)"
 d="M12.500,18.000 L2.500,18.000 C1.119,18.000 -0.000,16.902 -0.000,15.545 L-0.000,4.091 C-0.000,2.735 1.119,1.636 2.500,1.636 L3.478,1.636 C3.822,0.684 4.745,0.000 5.833,0.000 L9.167,0.000 C10.255,0.000 11.177,0.684 11.521,1.636 L12.500,1.636 C13.881,1.636 15.000,2.735 15.000,4.091 L15.000,15.545 C15.000,16.902 13.881,18.000 12.500,18.000 ZM9.167,1.636 L5.833,1.636 C5.373,1.636 5.000,2.003 5.000,2.455 C5.000,2.906 5.373,3.273 5.833,3.273 L9.167,3.273 C9.627,3.273 10.000,2.906 10.000,2.455 C10.000,2.003 9.627,1.636 9.167,1.636 ZM13.333,4.091 C13.333,3.639 12.960,3.273 12.500,3.273 L11.522,3.273 C11.178,4.225 10.255,4.909 9.167,4.909 L5.833,4.909 C4.745,4.909 3.822,4.225 3.478,3.273 L2.500,3.273 C2.039,3.273 1.667,3.639 1.667,4.091 L1.667,15.545 C1.667,15.998 2.040,16.364 2.500,16.364 L12.500,16.364 C12.960,16.364 13.333,15.997 13.333,15.545 L13.333,15.545 L13.333,4.091 ZM7.464,12.306 C7.304,12.450 7.102,12.521 6.901,12.521 C6.763,12.521 6.626,12.483 6.502,12.416 C6.380,12.377 6.265,12.314 6.168,12.219 L3.916,10.007 C3.590,9.688 3.590,9.170 3.916,8.850 C4.241,8.531 4.769,8.531 5.094,8.850 L6.884,10.608 L10.036,7.775 C10.376,7.470 10.903,7.493 11.214,7.826 C11.524,8.159 11.501,8.677 11.162,8.982 L7.464,12.306 Z"/>
</svg>
