<svg 
 xmlns="http://www.w3.org/2000/svg"
 xmlns:xlink="http://www.w3.org/1999/xlink"
 width="18px" height="15px">
<path fill-rule="evenodd"  fill="rgb(255, 255, 255)"
 d="M0.000,1.386 L0.000,11.263 C0.000,11.646 0.133,11.973 0.398,12.243 C0.663,12.514 0.984,12.649 1.358,12.649 L3.530,12.649 L3.544,12.650 C3.920,12.711 4.204,12.801 4.397,12.919 C4.632,13.062 5.356,13.668 6.570,14.737 C6.731,14.880 6.917,14.964 7.128,14.991 C7.322,15.016 7.508,14.988 7.688,14.907 C7.869,14.825 8.017,14.701 8.129,14.534 C8.252,14.353 8.314,14.150 8.314,13.927 L8.321,4.555 C8.307,2.830 7.970,1.668 7.310,1.068 C6.958,0.749 6.587,0.510 6.197,0.350 C5.968,0.256 5.641,0.164 5.218,0.074 L5.074,0.043 C4.942,0.014 4.809,0.000 4.676,0.000 L1.358,0.000 C0.984,0.000 0.663,0.135 0.398,0.406 C0.133,0.677 0.000,1.004 0.000,1.386 L0.000,1.386 ZM1.698,10.916 L1.698,1.733 L4.676,1.733 C4.689,1.733 4.704,1.735 4.719,1.738 L4.871,1.770 C5.197,1.840 5.428,1.902 5.565,1.959 C5.772,2.043 5.977,2.178 6.181,2.363 C6.289,2.461 6.382,2.663 6.460,2.968 C6.563,3.373 6.618,3.906 6.623,4.568 L6.617,12.503 C5.938,11.923 5.489,11.566 5.269,11.432 C4.889,11.200 4.404,11.036 3.814,10.939 C3.722,10.924 3.628,10.916 3.530,10.916 L1.698,10.916 ZM18.000,1.386 L18.000,11.263 C18.000,11.646 17.867,11.973 17.602,12.243 C17.337,12.514 17.017,12.649 16.642,12.649 L14.470,12.649 L14.456,12.650 C14.080,12.711 13.796,12.801 13.603,12.919 C13.368,13.062 12.644,13.668 11.430,14.737 C11.269,14.880 11.083,14.964 10.872,14.991 C10.678,15.016 10.492,14.988 10.312,14.907 C10.131,14.825 9.983,14.701 9.871,14.534 C9.748,14.353 9.686,14.150 9.686,13.927 L9.679,4.555 C9.693,2.830 10.030,1.668 10.690,1.068 C11.042,0.749 11.413,0.510 11.803,0.350 C12.032,0.256 12.359,0.164 12.782,0.074 L12.926,0.043 C13.058,0.014 13.191,0.000 13.324,0.000 L16.642,0.000 C17.017,0.000 17.337,0.135 17.602,0.406 C17.867,0.677 18.000,1.004 18.000,1.386 L18.000,1.386 ZM16.302,10.916 L16.302,1.733 L13.324,1.733 C13.311,1.733 13.296,1.735 13.281,1.738 L13.129,1.770 C12.803,1.840 12.572,1.902 12.435,1.959 C12.228,2.043 12.023,2.178 11.819,2.363 C11.711,2.461 11.618,2.663 11.540,2.968 C11.437,3.373 11.382,3.906 11.377,4.568 L11.383,12.503 C12.062,11.923 12.511,11.566 12.731,11.432 C13.111,11.200 13.596,11.036 14.186,10.939 C14.278,10.924 14.372,10.916 14.470,10.916 L16.302,10.916 Z"/>
</svg>
